<?xml version="1.0" encoding="utf-8"?>
<!-- Generator: Adobe Illustrator 22.0.1, SVG Export Plug-In . SVG Version: 6.00 Build 0)  -->
<svg version="1.1" id="Layer_1" xmlns="http://www.w3.org/2000/svg" xmlns:xlink="http://www.w3.org/1999/xlink" x="0px" y="0px"
	 viewBox="0 0 600 600" style="enable-background:new 0 0 600 600;" xml:space="preserve">
<style type="text/css">
	.st0{fill:#E2A171;}
</style>
<g transform="translate(300,300)">
	<path class="st0" d="M132-208.9c39.7,29,73,64.6,90.2,106.2c17.2,41.7,18.3,89.6,7.8,133c-10.5,43.5-32.6,82.6-59.8,121.4
		c-27.1,38.8-59.4,77.4-101.8,97.2c-42.5,19.8-95.2,20.7-139.1,2.8c-44-17.8-79.2-54.5-114-92.7s-69-77.9-78.8-123.2
		c-9.8-45.3,5-96.2,32.9-134.4s69-63.6,109.6-92.2s80.8-60.4,124-65C46.1-260.5,92.3-237.9,132-208.9z"/>
</g>
</svg>
